<svg xmlns="http://www.w3.org/2000/svg" xmlns:xlink="http://www.w3.org/1999/xlink" width="285" zoomAndPan="magnify" viewBox="0 0 213.75 52.499999" height="70" preserveAspectRatio="xMidYMid meet" version="1.2"><defs><clipPath id="d71bf13ded"><path d="M 10 10.890625 L 55.707031 10.890625 L 55.707031 48.882812 L 10 48.882812 Z M 10 10.890625 "/></clipPath><clipPath id="42b16696e8"><path d="M 28.609375 10.890625 L 49.792969 10.890625 C 51.6875 10.890625 53.464844 11.800781 54.570312 13.335938 C 55.679688 14.871094 55.980469 16.84375 55.378906 18.640625 L 47.882812 41.128906 C 46.339844 45.757812 42.007812 48.882812 37.128906 48.882812 L 15.941406 48.882812 C 14.050781 48.882812 12.273438 47.972656 11.164062 46.4375 C 10.058594 44.898438 9.757812 42.925781 10.355469 41.128906 L 17.851562 18.640625 C 19.394531 14.011719 23.726562 10.890625 28.609375 10.890625 Z M 28.609375 10.890625 "/></clipPath><clipPath id="a7b095a07d"><path d="M 0 0.890625 L 45.707031 0.890625 L 45.707031 38.882812 L 0 38.882812 Z M 0 0.890625 "/></clipPath><clipPath id="6c51b9bf8e"><path d="M 18.609375 0.890625 L 39.792969 0.890625 C 41.6875 0.890625 43.464844 1.800781 44.570312 3.335938 C 45.679688 4.871094 45.980469 6.84375 45.378906 8.640625 L 37.882812 31.128906 C 36.339844 35.757812 32.007812 38.882812 27.128906 38.882812 L 5.941406 38.882812 C 4.050781 38.882812 2.273438 37.972656 1.164062 36.4375 C 0.0585938 34.898438 -0.242188 32.925781 0.355469 31.128906 L 7.851562 8.640625 C 9.394531 4.011719 13.726562 0.890625 18.609375 0.890625 Z M 18.609375 0.890625 "/></clipPath><clipPath id="2c48618124"><rect x="0" width="46" y="0" height="39"/></clipPath><clipPath id="252dbebdaf"><path d="M 0.882812 3 L 52 3 L 52 43 L 0.882812 43 Z M 0.882812 3 "/></clipPath><filter x="0%" y="0%" width="100%" filterUnits="objectBoundingBox" id="4e447913c1" height="100%"><feColorMatrix values="0 0 0 0 1 0 0 0 0 1 0 0 0 0 1 0 0 0 1 0" type="matrix" in="SourceGraphic"/></filter><clipPath id="ec5ba81d63"><path d="M 3.109375 0.894531 L 48.820312 0.894531 L 48.820312 38.890625 L 3.109375 38.890625 Z M 3.109375 0.894531 "/></clipPath><clipPath id="24fe2c7035"><path d="M 21.722656 0.894531 L 42.90625 0.894531 C 44.800781 0.894531 46.578125 1.804688 47.683594 3.339844 C 48.792969 4.878906 49.09375 6.851562 48.496094 8.648438 L 41 31.136719 C 39.453125 35.765625 35.121094 38.890625 30.242188 38.890625 L 9.054688 38.890625 C 7.164062 38.890625 5.386719 37.980469 4.277344 36.441406 C 3.171875 34.90625 2.871094 32.933594 3.46875 31.136719 L 10.964844 8.648438 C 12.507812 4.019531 16.839844 0.894531 21.722656 0.894531 Z M 21.722656 0.894531 "/></clipPath><clipPath id="11242d3200"><path d="M 0.109375 0.894531 L 45.820312 0.894531 L 45.820312 38.890625 L 0.109375 38.890625 Z M 0.109375 0.894531 "/></clipPath><clipPath id="13a1ebbba2"><path d="M 18.722656 0.894531 L 39.90625 0.894531 C 41.800781 0.894531 43.578125 1.804688 44.683594 3.339844 C 45.792969 4.878906 46.09375 6.851562 45.496094 8.648438 L 38 31.136719 C 36.453125 35.765625 32.121094 38.890625 27.242188 38.890625 L 6.054688 38.890625 C 4.164062 38.890625 2.386719 37.980469 1.277344 36.441406 C 0.171875 34.90625 -0.128906 32.933594 0.46875 31.136719 L 7.964844 8.648438 C 9.507812 4.019531 13.839844 0.894531 18.722656 0.894531 Z M 18.722656 0.894531 "/></clipPath><clipPath id="83e89f0a36"><rect x="0" width="46" y="0" height="39"/></clipPath><clipPath id="21064ac5cc"><rect x="0" width="52" y="0" height="40"/></clipPath><clipPath id="774fc385fe"><path d="M 61 0 L 212 0 L 212 52.003906 L 61 52.003906 Z M 61 0 "/></clipPath><clipPath id="0c4823b68d"><rect x="0" width="151" y="0" height="53"/></clipPath></defs><g id="104d5b5c00"><g clip-rule="nonzero" clip-path="url(#d71bf13ded)"><g clip-rule="nonzero" clip-path="url(#42b16696e8)"><g transform="matrix(1,0,0,1,10,10)"><g clip-path="url(#2c48618124)"><g clip-rule="nonzero" clip-path="url(#a7b095a07d)"><g clip-rule="nonzero" clip-path="url(#6c51b9bf8e)"><path style=" stroke:none;fill-rule:nonzero;fill:#ffffff;fill-opacity:1;" d="M -2.230469 0.890625 L 47.933594 0.890625 L 47.933594 38.882812 L -2.230469 38.882812 Z M -2.230469 0.890625 "/></g></g></g></g></g></g><g clip-rule="nonzero" clip-path="url(#252dbebdaf)"><g mask="url(#5dd911128c)" transform="matrix(1,0,0,1,0.000000000000000111,3)"><g clip-path="url(#21064ac5cc)"><g clip-rule="nonzero" clip-path="url(#ec5ba81d63)"><g clip-rule="nonzero" clip-path="url(#24fe2c7035)"><g transform="matrix(1,0,0,1,3,0)"><g id="8978f6bf25" clip-path="url(#83e89f0a36)"><g clip-rule="nonzero" clip-path="url(#11242d3200)"><g clip-rule="nonzero" clip-path="url(#13a1ebbba2)"><path style=" stroke:none;fill-rule:nonzero;fill:#ff3131;fill-opacity:1;" d="M -2.117188 0.894531 L 48.046875 0.894531 L 48.046875 38.890625 L -2.117188 38.890625 Z M -2.117188 0.894531 "/></g></g></g></g></g></g></g><mask id="5dd911128c"><g filter="url(#4e447913c1)"><rect x="0" width="213.75" y="0" height="52.499999" style="fill:#000000;fill-opacity:0.8;stroke:none;"/></g></mask></g></g><g clip-rule="nonzero" clip-path="url(#774fc385fe)"><g transform="matrix(1,0,0,1,61,0)"><g clip-path="url(#0c4823b68d)"><g style="fill:#ffffff;fill-opacity:1;"><g transform="translate(0.744164, 44.077438)"><path style="stroke:none" d="M 15.28125 0.515625 C 12.644531 0.515625 10.304688 -0.0625 8.265625 -1.21875 C 6.234375 -2.382812 4.644531 -4.007812 3.5 -6.09375 C 2.351562 -8.175781 1.78125 -10.597656 1.78125 -13.359375 C 1.78125 -16.015625 2.351562 -18.359375 3.5 -20.390625 C 4.644531 -22.429688 6.226562 -24.03125 8.25 -25.1875 C 10.269531 -26.351562 12.613281 -26.9375 15.28125 -26.9375 C 17.945312 -26.9375 20.296875 -26.351562 22.328125 -25.1875 C 24.367188 -24.03125 25.960938 -22.429688 27.109375 -20.390625 C 28.253906 -18.359375 28.828125 -16.015625 28.828125 -13.359375 C 28.828125 -10.628906 28.257812 -8.222656 27.125 -6.140625 C 26 -4.054688 24.414062 -2.425781 22.375 -1.25 C 20.34375 -0.0703125 17.976562 0.515625 15.28125 0.515625 Z M 15.28125 -4.9375 C 17.351562 -4.9375 19.03125 -5.71875 20.3125 -7.28125 C 21.59375 -8.851562 22.234375 -10.878906 22.234375 -13.359375 C 22.234375 -14.921875 21.941406 -16.3125 21.359375 -17.53125 C 20.785156 -18.757812 19.976562 -19.722656 18.9375 -20.421875 C 17.90625 -21.128906 16.6875 -21.484375 15.28125 -21.484375 C 13.9375 -21.484375 12.726562 -21.140625 11.65625 -20.453125 C 10.59375 -19.765625 9.765625 -18.804688 9.171875 -17.578125 C 8.578125 -16.359375 8.28125 -14.953125 8.28125 -13.359375 C 8.28125 -10.847656 8.9375 -8.816406 10.25 -7.265625 C 11.5625 -5.710938 13.238281 -4.9375 15.28125 -4.9375 Z M 15.28125 -4.9375 "/></g></g><g style="fill:#ffffff;fill-opacity:1;"><g transform="translate(32.098511, 44.077438)"><path style="stroke:none" d="M 9.21875 0 L 2.875 0 L 2.875 -26.375 L 9.21875 -26.375 L 9.21875 -23.03125 C 10.28125 -24.507812 11.390625 -25.53125 12.546875 -26.09375 C 13.710938 -26.65625 15 -26.9375 16.40625 -26.9375 C 18.820312 -26.9375 20.648438 -26.503906 21.890625 -25.640625 C 23.128906 -24.785156 24.046875 -23.742188 24.640625 -22.515625 C 25.171875 -21.359375 25.484375 -20.175781 25.578125 -18.96875 C 25.671875 -17.757812 25.71875 -16.5 25.71875 -15.1875 L 25.71875 0 L 19.421875 0 L 19.421875 -15.28125 C 19.421875 -16.625 19.3125 -17.710938 19.09375 -18.546875 C 18.875 -19.378906 18.539062 -20.046875 18.09375 -20.546875 C 17.34375 -21.328125 16.234375 -21.71875 14.765625 -21.71875 C 12.972656 -21.71875 11.640625 -21.1875 10.765625 -20.125 C 10.234375 -19.5 9.84375 -18.664062 9.59375 -17.625 C 9.34375 -16.59375 9.21875 -15.203125 9.21875 -13.453125 Z M 9.21875 0 "/></g></g><g style="fill:#ffffff;fill-opacity:1;"><g transform="translate(61.243486, 44.077438)"><path style="stroke:none" d="M 6.0625 -29.296875 C 5 -29.296875 4.082031 -29.625 3.3125 -30.28125 C 2.539062 -30.9375 2.15625 -31.8125 2.15625 -32.90625 C 2.15625 -33.976562 2.539062 -34.847656 3.3125 -35.515625 C 4.082031 -36.191406 5 -36.53125 6.0625 -36.53125 C 7.125 -36.53125 8.039062 -36.191406 8.8125 -35.515625 C 9.582031 -34.847656 9.96875 -33.976562 9.96875 -32.90625 C 9.96875 -31.8125 9.582031 -30.9375 8.8125 -30.28125 C 8.039062 -29.625 7.125 -29.296875 6.0625 -29.296875 Z M 9.21875 0 L 2.875 0 L 2.875 -26.375 L 9.21875 -26.375 Z M 9.21875 0 "/></g></g><g style="fill:#ffffff;fill-opacity:1;"><g transform="translate(74.076797, 44.077438)"><path style="stroke:none" d="M 13.5 0.515625 C 11.207031 0.515625 9.179688 -0.0625 7.421875 -1.21875 C 5.671875 -2.382812 4.304688 -4 3.328125 -6.0625 C 2.359375 -8.132812 1.875 -10.519531 1.875 -13.21875 C 1.875 -15.90625 2.359375 -18.28125 3.328125 -20.34375 C 4.304688 -22.414062 5.671875 -24.03125 7.421875 -25.1875 C 9.179688 -26.351562 11.207031 -26.9375 13.5 -26.9375 C 15.0625 -26.9375 16.429688 -26.660156 17.609375 -26.109375 C 18.785156 -25.566406 19.90625 -24.539062 20.96875 -23.03125 L 20.96875 -35.875 L 27.3125 -35.875 L 27.3125 0 L 20.96875 0 L 20.96875 -3.34375 C 19.90625 -1.863281 18.785156 -0.847656 17.609375 -0.296875 C 16.429688 0.242188 15.0625 0.515625 13.5 0.515625 Z M 14.953125 -4.9375 C 16.984375 -4.9375 18.625 -5.703125 19.875 -7.234375 C 21.132812 -8.773438 21.765625 -10.769531 21.765625 -13.21875 C 21.765625 -15.65625 21.132812 -17.640625 19.875 -19.171875 C 18.625 -20.710938 16.984375 -21.484375 14.953125 -21.484375 C 12.941406 -21.484375 11.328125 -20.707031 10.109375 -19.15625 C 8.890625 -17.601562 8.28125 -15.625 8.28125 -13.21875 C 8.28125 -10.832031 8.890625 -8.851562 10.109375 -7.28125 C 11.328125 -5.71875 12.941406 -4.9375 14.953125 -4.9375 Z M 14.953125 -4.9375 "/></g></g><g style="fill:#ffffff;fill-opacity:1;"><g transform="translate(105.008073, 44.077438)"><path style="stroke:none" d="M 15.234375 0.515625 C 12.535156 0.515625 10.175781 -0.0703125 8.15625 -1.25 C 6.132812 -2.425781 4.566406 -4.03125 3.453125 -6.0625 C 2.335938 -8.101562 1.78125 -10.421875 1.78125 -13.015625 C 1.78125 -14.742188 2.046875 -16.4375 2.578125 -18.09375 C 3.117188 -19.757812 3.9375 -21.257812 5.03125 -22.59375 C 6.125 -23.925781 7.5 -24.984375 9.15625 -25.765625 C 10.820312 -26.546875 12.785156 -26.9375 15.046875 -26.9375 C 16.734375 -26.9375 18.367188 -26.671875 19.953125 -26.140625 C 21.535156 -25.609375 22.953125 -24.785156 24.203125 -23.671875 C 25.460938 -22.554688 26.457031 -21.132812 27.1875 -19.40625 C 27.925781 -17.6875 28.296875 -15.640625 28.296875 -13.265625 L 28.296875 -11.890625 L 8.375 -11.890625 C 8.4375 -11.328125 8.5625 -10.769531 8.75 -10.21875 C 8.9375 -9.675781 9.140625 -9.203125 9.359375 -8.796875 C 9.984375 -7.566406 10.820312 -6.613281 11.875 -5.9375 C 12.925781 -5.269531 14.125 -4.9375 15.46875 -4.9375 C 16.96875 -4.9375 18.226562 -5.328125 19.25 -6.109375 C 20.269531 -6.890625 20.984375 -7.816406 21.390625 -8.890625 L 27.875 -8.890625 C 27.375 -7.191406 26.578125 -5.628906 25.484375 -4.203125 C 24.390625 -2.773438 22.992188 -1.628906 21.296875 -0.765625 C 19.609375 0.0859375 17.585938 0.515625 15.234375 0.515625 Z M 8.65625 -16.640625 L 21.8125 -16.640625 C 21.78125 -16.984375 21.691406 -17.375 21.546875 -17.8125 C 21.410156 -18.257812 21.171875 -18.6875 20.828125 -19.09375 C 20.234375 -20.03125 19.441406 -20.734375 18.453125 -21.203125 C 17.460938 -21.671875 16.390625 -21.90625 15.234375 -21.90625 C 14.078125 -21.90625 13.019531 -21.671875 12.0625 -21.203125 C 11.101562 -20.734375 10.3125 -20.03125 9.6875 -19.09375 C 9.34375 -18.6875 9.097656 -18.257812 8.953125 -17.8125 C 8.816406 -17.375 8.71875 -16.984375 8.65625 -16.640625 Z M 8.65625 -16.640625 "/></g></g><g style="fill:#ffffff;fill-opacity:1;"><g transform="translate(135.798322, 44.077438)"><path style="stroke:none" d="M 12.96875 0 L 8.890625 0 C 6.941406 0 5.4375 -0.453125 4.375 -1.359375 C 3.3125 -2.273438 2.78125 -3.75 2.78125 -5.78125 L 2.78125 -35.875 L 9.125 -35.875 L 9.125 -7.65625 C 9.125 -6.78125 9.285156 -6.160156 9.609375 -5.796875 C 9.941406 -5.441406 10.5 -5.265625 11.28125 -5.265625 L 12.96875 -5.265625 Z M 12.96875 0 "/></g></g></g></g></g></g></svg>